# xmcd
#
# Track frame offsets:
#	150
#	9477
#	20315
#	30240
#	40380
#	54345
#	65522
#	75902
#	86757
#	98685
#	109350
#	116905
#	128645
#	138907
#	149665
#	162425
#	171377
#	184712
#	196907
#	210207
#	220715
#	232015
#	243262
#	255315
#
# Disc length: 3567 seconds
#
# Revision: 1
# Processed by: cddbd v1.5.2PL0 Copyright (c) Steve Scherf et al.
# Submitted via: audiograbber 1.83.01
#
DISCID=400ded18
DTITLE=Various Artist - Stompin' - Volume 2
DYEAR=1900
DGENRE=Blues
TTITLE0=Square Walton - Bad Hangover
TTITLE1=Papa Lightfoot - Jump The Boogie
TTITLE2=Pigmeat Peterson - Loud Mouth Lucy
TTITLE3=Cousin Leroy - I'm Lonesome
TTITLE4=The Sly Fox - My Four Women
TTITLE5=Little Red Walter - Aw! Shucks Baby
TTITLE6=Lloyd Price - The Chicken And The Bop
TTITLE7=Young John Watson - I Got Eyes
TTITLE8=Junior Wells - Lord, Lord
TTITLE9=Ernest Brooks - Talkin' Off The Wall
TTITLE10=Slim Harpo - Bobby Sox Baby
TTITLE11=Mojo Watson - I'm The Only One
TTITLE12=Jackie Brenston - Much Later
TTITLE13=Harmon "Hump" Jones - Lookin' For My Baby
TTITLE14=Crawford Brothers - I Ain't Guilty
TTITLE15=Table Toppers - Talk To Me Baby
TTITLE16=Mister Ruffin - Bring It On Back
TTITLE17=Johnny Little John - Bloody Tears
TTITLE18=Polka Dot Slim - A Thing You Gotta Face
TTITLE19=Big Daddy - I Think You're Lying
TTITLE20=Sherman Evans - Yo Yo Twist
TTITLE21=Phil Flowers - Twistin' Beat
TTITLE22=Little Pap Joe - Looking For My Baby
TTITLE23=Freddie Clark - Beggin' Papa Blues
EXTD=24 Rockin' Blues Monsters
EXTT0=
EXTT1=
EXTT2=
EXTT3=
EXTT4=
EXTT5=
EXTT6=
EXTT7=
EXTT8=
EXTT9=
EXTT10=
EXTT11=
EXTT12=
EXTT13=
EXTT14=
EXTT15=
EXTT16=
EXTT17=
EXTT18=
EXTT19=
EXTT20=
EXTT21=
EXTT22=
EXTT23=
PLAYORDER=
